<svg width="984" height="978" viewBox="0 0 984 978" fill="none" xmlns="http://www.w3.org/2000/svg">
<path d="M491.5 58C601.809 58 701.403 94.9923 773.38 163.131C845.315 231.229 890 330.749 890 456.5V960.914C890 966.075 886.129 970.173 881.053 970.45C801.057 974.81 604.065 969.5 499.354 969.5C393.389 969.5 200.044 974.941 102.196 970.283C96.9903 970.035 93.0002 965.843 93 960.58C92.9998 866.981 93 562.355 93 456.5C93 331.758 137.68 232.231 209.627 163.875C281.613 95.4814 381.209 58 491.5 58Z" fill="#53C2AC" stroke="#378475" stroke-width="10"/>
<ellipse cx="324" cy="482" rx="50" ry="48" fill="#066854"/>
<ellipse cx="666.5" cy="482" rx="48.5" ry="48" fill="#066854"/>
<ellipse cx="312" cy="458.5" rx="16" ry="15.5" fill="white"/>
<ellipse cx="290.5" cy="483" rx="9.5" ry="9" fill="white"/>
<ellipse cx="635.5" cy="482" rx="9.5" ry="9" fill="white"/>
<ellipse cx="656.5" cy="458.5" rx="16.5" ry="15.5" fill="white"/>
<path d="M287.744 555.632C310.165 553.364 338.318 553.266 372.175 553.71C406.176 554.156 446.06 555.152 492.497 555.152C544.314 555.153 586.595 554.404 621.595 554.271C656.345 554.14 683.749 554.616 704.771 557.148C725.598 559.657 741.566 564.315 752.254 573.681C763.399 583.447 767.498 597.098 767.498 614.154C767.498 676.707 721.37 724.932 665.504 757.036C609.425 789.262 541.271 806.662 492.497 806.662C443.464 806.662 375.014 785.75 318.859 751.92C263.122 718.341 216.5 670.144 216.5 614.154C216.5 595.547 222.317 581.382 235.292 571.637C247.647 562.357 265.516 557.881 287.744 555.632Z" fill="#1C433B" stroke="#378475" stroke-width="15"/>
<path d="M536.911 714C575.481 714 609.745 733.284 631.384 763.139C582.795 784.231 529.5 795 489.87 795C451.547 795 400.283 782.732 352.821 761.265C374.521 732.479 408.154 714 445.911 714C462.033 714 477.401 717.37 491.411 723.472C505.421 717.37 520.79 714 536.911 714Z" fill="#EF543F"/>
</svg>
