<svg width="984" height="978" viewBox="0 0 984 978" fill="none" xmlns="http://www.w3.org/2000/svg">
<path d="M491.5 58C601.809 58 701.403 94.9923 773.38 163.131C845.315 231.229 890 330.749 890 456.5V960.914C890 966.075 886.129 970.173 881.053 970.45C801.057 974.81 604.065 969.5 499.354 969.5C393.389 969.5 200.044 974.941 102.196 970.283C96.9903 970.035 93.0002 965.843 93 960.58C92.9998 866.981 93 562.355 93 456.5C93 331.758 137.68 232.231 209.627 163.875C281.613 95.4814 381.209 58 491.5 58Z" fill="#6BA5CB" stroke="#417EA6" stroke-width="10"/>
<ellipse cx="324" cy="482" rx="50" ry="48" fill="#253B49"/>
<ellipse cx="666.5" cy="482" rx="48.5" ry="48" fill="#253B49"/>
<ellipse cx="312" cy="458.5" rx="16" ry="15.5" fill="white"/>
<ellipse cx="656.5" cy="458.5" rx="16.5" ry="15.5" fill="white"/>
<path d="M310 554C436 599.5 542.5 598.5 675 554" stroke="#417EA6" stroke-width="42" stroke-linecap="round"/>
<path d="M310 554C436 599.5 542.5 598.5 675 554" stroke="#1C5071" stroke-width="10" stroke-linecap="round"/>
<path d="M603 377.203C624.496 316.204 712.996 318.704 729 378.203" stroke="#1C5071" stroke-width="25" stroke-linecap="round"/>
</svg>
