<svg width="984" height="978" viewBox="0 0 984 978" fill="none" xmlns="http://www.w3.org/2000/svg">
<path d="M467.5 141.5C577.938 141.5 677.593 175.17 749.556 237.091C821.439 298.943 866 389.231 866 503.252V960.34C866 965.544 862.063 969.692 856.958 969.944C776.87 973.897 579.981 969.076 475.354 969.076C369.449 969.076 176.151 974.019 78.2617 969.791C73.0592 969.566 69.0002 965.312 69 959.993C68.9998 873.288 69 598.934 69 503.252C69 390.149 113.555 299.853 185.451 237.767C257.422 175.615 357.078 141.5 467.5 141.5Z" fill="#B38BD6" stroke="#82609F" stroke-width="10"/>
<path d="M345.446 604.912C358.898 603.551 375.791 603.492 396.105 603.758C416.506 604.026 440.436 604.624 468.298 604.624C499.388 604.624 524.756 604.175 545.756 604.095C566.606 604.016 583.049 604.302 595.662 605.821C608.158 607.326 617.739 610.121 624.152 615.741C630.839 621.6 633.298 629.791 633.298 640.025C633.298 677.557 605.622 706.492 572.102 725.754C538.455 745.09 497.563 755.53 468.298 755.53C438.878 755.53 397.808 742.982 364.116 722.684C330.673 702.537 302.7 673.619 302.7 640.025C302.7 628.86 306.19 620.362 313.975 614.514C321.388 608.947 332.109 606.261 345.446 604.912Z" fill="#453752" stroke="#82609F" stroke-width="9"/>
<path d="M494.947 699.933C518.088 699.933 538.647 711.502 551.63 729.415C522.477 742.071 490.5 748.532 466.722 748.532C443.728 748.532 412.969 741.171 384.492 728.291C397.513 711.02 417.692 699.933 440.346 699.933C450.018 699.933 459.239 701.955 467.645 705.615C476.051 701.954 485.273 699.933 494.947 699.933Z" fill="#EF543F"/>
<path d="M247 529.703C263.407 468.663 330.466 470.993 342.48 530.461" stroke="#453752" stroke-width="25" stroke-linecap="round"/>
<path d="M593 529.703C609.407 468.663 676.466 470.993 688.48 530.461" stroke="#453752" stroke-width="25" stroke-linecap="round"/>
<path d="M451.495 587.5L168.995 602.5C147.318 602 100.995 584.3 104.995 549.5C109.995 506 146.495 489.5 173.995 489.5C201.495 489.5 212.662 517.333 210.995 529" stroke="#231D29" stroke-width="35" stroke-linecap="round"/>
<path d="M484.495 586.29L766.995 601.29C788.672 600.79 834.995 583.09 830.995 548.29C825.995 504.79 789.495 488.29 761.995 488.29C734.495 488.29 723.328 516.123 724.995 527.79" stroke="#231D29" stroke-width="35" stroke-linecap="round"/>
<path d="M503.233 117.199L485.233 143.699C635.428 184.875 708.934 228.217 826.233 331.699L836.233 311.199C883.733 337.199 937.138 315.648 916.233 238.699C892.733 152.199 802.733 91.6987 785.233 78.6987C798.733 76.1987 815.233 77.6987 829.733 81.1987C844.233 84.6987 852.233 89.1987 858.233 72.1987C863.033 58.5987 845.566 52.5321 836.233 51.1987C816.566 47.0321 781 42.1985 753 58.5C740.6 41.7 652.5 2.19851 607.733 2.19851C569.733 -2.30149 487.833 -0.601486 464.233 42.1985C440.633 84.9985 480.399 110.032 503.233 117.199Z" fill="black" stroke="black"/>
</svg>
