<svg width="984" height="978" viewBox="0 0 984 978" fill="none" xmlns="http://www.w3.org/2000/svg">
<path d="M491.5 58C601.809 58 701.403 94.9923 773.38 163.131C845.315 231.229 890 330.749 890 456.5V960.914C890 966.075 886.129 970.173 881.053 970.45C801.057 974.81 604.065 969.5 499.354 969.5C393.389 969.5 200.044 974.941 102.196 970.283C96.9903 970.035 93.0002 965.843 93 960.58C92.9998 866.981 93 562.355 93 456.5C93 331.758 137.68 232.231 209.627 163.875C281.613 95.4814 381.209 58 491.5 58Z" fill="#E68FC2" stroke="#AD6890" stroke-width="10"/>
<ellipse cx="324" cy="482" rx="50" ry="48" fill="#452B3A"/>
<ellipse cx="666.5" cy="482" rx="48.5" ry="48" fill="#452B3A"/>
<ellipse cx="312" cy="480.5" rx="16" ry="15.5" fill="white"/>
<ellipse cx="656.5" cy="480.5" rx="16.5" ry="15.5" fill="white"/>
<path d="M380 590C457.671 544.164 523.322 545.172 605 590" stroke="#AD6890" stroke-width="42" stroke-linecap="round"/>
<path d="M380 590C457.671 544.164 523.322 545.172 605 590" stroke="#723157" stroke-width="10" stroke-linecap="round"/>
<path d="M273 419.306C299.262 388.231 348.738 388.231 375 419.306C384.411 430.441 387.937 450.11 389.244 464.456C390.132 474.189 382.184 482 372.411 482H275.589C265.816 482 257.868 474.189 258.755 464.456C260.063 450.11 263.589 430.441 273 419.306Z" fill="#AD6890"/>
<path d="M616 419.306C642.262 388.231 691.738 388.231 718 419.306C727.411 430.441 730.937 450.11 732.244 464.456C733.132 474.189 725.184 482 715.411 482H618.589C608.816 482 600.868 474.189 601.755 464.456C603.063 450.11 606.589 430.441 616 419.306Z" fill="#AD6890"/>
<line x1="231.5" y1="420.5" x2="784.5" y2="420.5" stroke="#723157" stroke-width="45" stroke-linecap="round"/>
</svg>
